<svg width="91" height="111" viewBox="0 0 91 111" fill="none" xmlns="http://www.w3.org/2000/svg">
<path d="M81.3578 24.9968C78.6453 32.9249 69.7328 37.2577 61.4016 34.6764C53.0703 32.0952 48.5172 23.6139 51.2297 15.6858C52.5375 11.9061 55.3469 8.77175 59.0281 6.928C36.9406 -0.815747 12.4313 9.92409 4.29376 30.8967C-3.84374 51.8694 7.4422 75.2389 29.4813 82.9827C51.5203 90.7264 76.0781 79.9866 84.2156 59.0139C88.6235 47.8592 87.5578 35.4139 81.3578 24.9968Z" fill="white"/>
<path d="M66.3422 35.4138C57.6235 35.4138 50.5031 28.6842 50.5031 20.3412C50.5031 17.6217 51.2781 14.9021 52.7797 12.5513C33.9859 8.12634 14.95 19.0045 10.2516 36.9349C5.55313 54.8654 17.0328 72.9342 35.875 77.4053C54.6688 81.8303 73.7047 70.9521 78.4032 53.0217C80.2438 45.9693 79.6141 38.5021 76.611 31.8185C73.7047 34.1693 70.0719 35.4138 66.3422 35.4138Z" fill="white"/>
<path d="M44.3031 86.7162C20.0844 86.7162 0.467194 68.0483 0.467194 45.0014C0.467194 33.9389 5.06876 23.3373 13.3031 15.5014C25.4125 4.02405 43.4313 0.290461 59.4641 5.86781C60.0938 6.09827 60.4328 6.74359 60.1906 7.34281C60.0938 7.61937 59.9 7.84984 59.6094 7.98812C52.4406 11.4912 49.6313 19.8803 53.3125 26.7022C56.9938 33.5241 65.8094 36.1975 72.9781 32.6944C76.4172 31.035 78.9844 28.1311 80.1953 24.628C80.3891 24.0287 81.0672 23.7061 81.6969 23.8905C81.9875 23.9827 82.2297 24.167 82.375 24.3975C94.2906 44.4483 86.9281 69.892 65.8578 81.2311C59.3188 84.8264 51.9078 86.7162 44.3031 86.7162ZM44.3516 5.63734C21.4891 5.63734 2.93751 23.2451 2.93751 44.9553C2.93751 66.7116 21.4406 84.3655 44.2547 84.3655C67.0688 84.3655 85.6688 66.7577 85.6688 45.0475C85.6688 39.0553 84.2156 33.1092 81.4547 27.7162C77.1922 35.6905 66.9235 38.8709 58.5438 34.8147C50.1641 30.7584 46.8219 20.9866 51.0844 13.0123C52.2953 10.7537 54.0391 8.81781 56.1703 7.29671C52.3922 6.19046 48.3719 5.63734 44.3516 5.63734Z" fill="#232243"/>
<path d="M44.3031 79.5716C24.25 79.5716 7.97501 64.0841 7.97501 45.0013C7.97501 35.8287 11.8016 27.0708 18.6313 20.5716C27.5922 11.9521 40.6703 8.49507 53.0219 11.4451C53.6516 11.5833 54.0875 12.2287 53.8937 12.8279C53.8453 12.9201 53.7969 13.0583 53.7484 13.1505C49.5828 19.7419 51.8109 28.2693 58.7375 32.2333C64.1141 35.3216 70.9437 34.7685 75.7391 30.9427C76.2719 30.5279 76.9984 30.574 77.4344 31.081C77.5312 31.1732 77.5797 31.2654 77.6281 31.3576C85.5234 48.8732 76.9984 69.2005 58.5922 76.7138C54.0875 78.6037 49.2437 79.5716 44.3031 79.5716ZM44.2062 12.7357C25.5094 12.7818 10.3484 27.3013 10.4453 45.0935C10.4938 53.6208 14.0297 61.7794 20.375 67.7716C33.5984 80.3552 55.0562 80.3552 68.2797 67.7716C77.6766 58.8294 80.7281 45.4623 76.0297 33.6623C68.2797 38.7787 57.6719 36.9349 52.2953 29.606C48.8078 24.8123 48.275 18.6357 50.8906 13.381C48.7109 12.9662 46.4828 12.7357 44.2062 12.7357Z" fill="#232243"/>
<path d="M67.0203 35.414C66.7781 35.414 66.5359 35.414 66.2938 35.414C58.1562 35.414 51.375 29.5601 50.5516 21.8624C37.2313 18.4515 23.5719 25.9648 19.9875 38.6406C16.4031 51.3164 24.2984 64.3148 37.6188 67.7257C50.9391 71.1367 64.5984 63.6234 68.1828 50.9476C69.6844 45.7851 69.2484 40.3 67.0203 35.414Z" fill="white"/>
<path d="M44.1094 61.7336C53.9539 61.7336 61.9344 54.1392 61.9344 44.7711C61.9344 35.403 53.9539 27.8086 44.1094 27.8086C34.2649 27.8086 26.2844 35.403 26.2844 44.7711C26.2844 54.1392 34.2649 61.7336 44.1094 61.7336Z" fill="white"/>
<path d="M44.1094 69.7078C29.675 69.7078 17.9531 58.5531 17.9531 44.8171C17.9531 31.0812 29.675 19.9265 44.1094 19.9265C46.3859 19.9265 48.6625 20.2031 50.8906 20.7562C51.375 20.8945 51.7141 21.2632 51.7625 21.7703C52.4891 28.8687 58.7859 34.3078 66.2937 34.3078H66.9234C67.4078 34.3078 67.8922 34.5843 68.0859 34.9992C73.8016 47.6289 67.65 62.2867 54.3781 67.7257C51.1812 69.0164 47.6453 69.7078 44.1094 69.7078ZM44.1094 22.1851C30.9828 22.1851 20.375 32.3257 20.375 44.771C20.375 57.2164 31.0312 67.357 44.1094 67.357C57.2359 67.357 67.8437 57.2164 67.8437 44.771C67.8437 41.9593 67.3109 39.1937 66.1969 36.5664C57.8172 36.5664 50.6969 30.7125 49.4375 22.7843C47.6937 22.4156 45.9016 22.1851 44.1094 22.1851Z" fill="#232243"/>
<path d="M46.3375 53.4366H39.2656C38.5875 53.4366 38.0547 52.9295 38.0547 52.2842C38.0547 51.6389 38.5875 51.1319 39.2656 51.1319H46.3375C47.8875 51.1319 49.0984 49.9334 49.0984 48.4584C49.0984 47.0295 47.8391 45.8772 46.3375 45.8311H41.9297C39.0719 45.785 36.7469 43.5725 36.7953 40.853C36.8437 38.1334 39.1203 35.967 41.9297 35.967H48.1781C48.8562 35.967 49.3891 36.4741 49.3891 37.1194C49.3891 37.7647 48.8562 38.2717 48.1781 38.2717H41.9297C40.3797 38.2717 39.1687 39.4702 39.1687 40.9452C39.1687 42.3741 40.4281 43.5264 41.9297 43.5725H46.3375C49.1953 43.6186 51.5203 45.8311 51.4719 48.5506C51.4234 51.2241 49.1469 53.4366 46.3375 53.4366Z" fill="#232243"/>
<path d="M44.1094 56.018C43.4313 56.018 42.8984 55.5109 42.8984 54.8656V34.4922C42.8984 33.8469 43.4313 33.3398 44.1094 33.3398C44.7875 33.3398 45.3203 33.8469 45.3203 34.4922V54.8656C45.3203 55.5109 44.7875 56.018 44.1094 56.018Z" fill="#232243"/>
<path d="M44.1094 62.8859C33.5984 62.8859 25.0734 54.7734 25.0734 44.7711C25.0734 34.7688 33.5984 26.6562 44.1094 26.6562C54.6203 26.6562 63.1453 34.7688 63.1453 44.7711C63.0969 54.7734 54.6203 62.8859 44.1094 62.8859ZM44.1094 29.007C34.9547 29.007 27.4953 36.0594 27.4953 44.8172C27.4953 53.575 34.9063 60.6273 44.1094 60.6273C53.3125 60.6273 60.7235 53.575 60.7235 44.8172C60.675 36.0594 53.2641 29.007 44.1094 29.007Z" fill="#232243"/>
<path d="M66.3422 35.4139C75.0899 35.4139 82.1813 28.6656 82.1813 20.3412C82.1813 12.0168 75.0899 5.26855 66.3422 5.26855C57.5945 5.26855 50.5031 12.0168 50.5031 20.3412C50.5031 28.6656 57.5945 35.4139 66.3422 35.4139Z" fill="white"/>
<path d="M66.3422 36.5662C56.9453 36.5662 49.2922 29.3295 49.2922 20.3412C49.2922 11.399 56.8969 4.11621 66.3422 4.11621C75.7875 4.11621 83.3438 11.399 83.3438 20.3412C83.3438 29.2834 75.7391 36.5662 66.3422 36.5662ZM66.3422 6.46699C58.2531 6.46699 51.7141 12.6896 51.7141 20.3873C51.7141 28.085 58.2531 34.3076 66.3422 34.3076C74.4313 34.3076 80.9219 28.0389 80.9219 20.3412C80.9219 12.6896 74.3828 6.46699 66.3422 6.46699Z" fill="#232243"/>
<path d="M16.0156 2.6874H14.95V1.67334C14.95 0.889746 14.2719 0.290527 13.4969 0.290527C12.6734 0.290527 12.0437 0.93584 12.0437 1.67334V2.6874H10.9781C10.1547 2.6874 9.52499 3.33272 9.52499 4.07022C9.52499 4.80772 10.2031 5.45303 10.9781 5.45303H12.0437V6.46709C12.0437 7.25069 12.7219 7.84991 13.4969 7.84991C14.3203 7.84991 14.95 7.20459 14.95 6.46709V5.45303H16.0156C16.8391 5.45303 17.4688 4.80772 17.4688 4.07022C17.4688 3.33272 16.8391 2.6874 16.0156 2.6874Z" fill="white"/>
<path d="M90.0281 76.299C87.9453 75.9303 86.2984 74.4092 85.9109 72.4271C85.9109 72.3811 85.8625 72.335 85.8141 72.335C85.7656 72.335 85.7656 72.3811 85.7172 72.4271C85.2812 74.4092 83.6828 75.9303 81.6 76.299C81.5515 76.299 81.5031 76.3451 81.5031 76.3912C81.5031 76.4373 81.5515 76.4834 81.6 76.4834C83.6828 76.8521 85.3297 78.3732 85.7172 80.3553C85.7172 80.4014 85.7656 80.4475 85.8141 80.4475C85.8625 80.4475 85.8625 80.4014 85.9109 80.3553C86.3469 78.3732 87.9453 76.8521 90.0281 76.4834C90.0766 76.4834 90.125 76.4373 90.125 76.3912C90.125 76.3451 90.0766 76.3451 90.0281 76.299Z" fill="white"/>
<path d="M7.05468 107.643C5.65 107.412 4.53593 106.352 4.24531 105.016C4.24531 104.969 4.19687 104.969 4.14843 104.969C4.1 104.969 4.1 105.016 4.1 105.016C3.80937 106.352 2.69531 107.412 1.29062 107.643C1.24219 107.643 1.24219 107.689 1.24219 107.689C1.24219 107.735 1.29062 107.735 1.29062 107.735C2.69531 107.966 3.80937 109.026 4.1 110.362C4.1 110.409 4.14843 110.409 4.19687 110.409C4.24531 110.409 4.24531 110.362 4.24531 110.362C4.53593 109.026 5.65 107.966 7.05468 107.735C7.10312 107.735 7.10312 107.689 7.10312 107.689C7.10312 107.643 7.05468 107.643 7.05468 107.643Z" fill="white"/>
<path d="M68.5703 14.9482L66.3422 17.0686L64.1141 14.9482C63.1937 14.0264 61.6437 14.0264 60.675 14.9482C59.7062 15.8701 59.7062 17.299 60.675 18.2209L62.9031 20.3412L60.675 22.4615C59.7547 23.3834 59.7547 24.8123 60.675 25.7342C61.5953 26.61 63.1453 26.61 64.0656 25.7342L66.2937 23.6139L68.5219 25.7342C69.4422 26.6561 70.9922 26.6561 71.9609 25.7342C72.9297 24.8123 72.9297 23.3834 71.9609 22.4615L69.7328 20.3412L71.9609 18.2209C72.9297 17.3451 72.9297 15.8701 71.9609 14.9482C70.9922 14.0264 69.5391 14.0264 68.5703 14.9482Z" fill="white"/>
<path d="M62.3703 27.578C60.3844 27.578 58.7375 26.0108 58.7375 24.121C58.7375 23.1991 59.125 22.3233 59.8031 21.678L61.2078 20.3413L59.8031 19.0046C58.35 17.6678 58.35 15.5014 59.7547 14.1186C61.1594 12.7358 63.4359 12.7358 64.8891 14.0725L64.9375 14.1186L66.3422 15.4553L67.7469 14.1186C69.2 12.7819 71.4766 12.828 72.8813 14.2108C74.2375 15.5475 74.2375 17.6678 72.8813 19.0507L71.4766 20.3874L72.8813 21.7241C74.2859 23.0608 74.3344 25.2733 72.8813 26.61C71.4766 27.9468 69.1516 27.9928 67.7469 26.61L66.3422 25.2733L64.9375 26.61C64.2594 27.2093 63.3391 27.578 62.3703 27.578ZM66.3422 22.4616C66.6813 22.4616 66.9719 22.5999 67.2141 22.7843L69.4422 24.9046C69.9266 25.3655 70.7016 25.3655 71.1375 24.9046C71.6219 24.4436 71.6219 23.7061 71.1375 23.2913L68.9094 21.171C68.425 20.71 68.425 19.9725 68.9094 19.5577L71.1375 17.4374C71.6219 16.9764 71.6219 16.2389 71.1375 15.8241C70.6531 15.4093 69.8781 15.3632 69.4422 15.8241L67.2141 17.9444C66.7297 18.4053 65.9547 18.4053 65.5188 17.9444L63.2906 15.8241C62.8063 15.3632 62.0313 15.3632 61.5953 15.8241C61.1109 16.285 61.1109 17.0225 61.5953 17.4374L63.8234 19.5577C64.3078 20.0186 64.3078 20.7561 63.8234 21.171L61.5953 23.2913C61.1109 23.7522 61.1109 24.4897 61.5953 24.9046C62.0797 25.3655 62.8547 25.3655 63.2906 24.9046L65.5188 22.7843C65.7125 22.5999 66.0031 22.4616 66.3422 22.4616Z" fill="#FEBE12"/>
</svg>
