<svg width="97" height="109" viewBox="0 0 97 109" fill="none" xmlns="http://www.w3.org/2000/svg">
<path d="M95.3833 10.8999H64.6667C63.7739 10.8999 63.05 11.7133 63.05 12.7166V18.1666H58.2C57.3072 18.1666 56.5833 18.98 56.5833 19.9832V40.6605L44.8851 47.2332H1.61667C0.723862 47.2332 0 48.0466 0 49.0499V96.2832C0 97.2865 0.723862 98.0999 1.61667 98.0999H33.95C34.8428 98.0999 35.5667 97.2865 35.5667 96.2832V91.1602L53.0832 94.4411C53.1714 94.4577 53.2607 94.4661 53.35 94.4666H77.6C79.8999 94.4584 82.0216 93.0739 83.1678 90.8332H88.9167C89.8095 90.8332 90.5333 90.0198 90.5333 89.0166V83.5666H95.3833C96.2761 83.5666 97 82.7532 97 81.7499V12.7166C97 11.7133 96.2761 10.8999 95.3833 10.8999ZM32.3333 94.4666H3.23333V50.8666H32.3333V94.4666ZM66.2833 14.5332H93.7667V54.2892C93.7368 53.1433 93.464 51.9888 92.9222 50.924C92.3533 49.8059 91.5284 48.8789 90.5333 48.2397V19.9832C90.5333 18.98 89.8095 18.1666 88.9167 18.1666H66.2833V14.5332ZM59.8167 21.7999H87.3V47.2332H84.0667V30.8832C84.0667 29.88 83.3428 29.0666 82.45 29.0666C81.5572 29.0666 80.8333 28.2532 80.8333 27.2499C80.8333 26.2466 80.1095 25.4332 79.2167 25.4332H67.9C67.0072 25.4332 66.2833 26.2466 66.2833 27.2499C66.2833 28.2532 65.5595 29.0666 64.6667 29.0666C63.7739 29.0666 63.05 29.88 63.05 30.8832V47.2332H59.8167V21.7999ZM80.8333 32.3893V47.2332H66.2833V32.3893C67.663 31.837 68.7487 30.6169 69.2402 29.0666H77.8764C78.3679 30.6169 79.4537 31.837 80.8333 32.3893ZM87.3 87.1999H84.0667C84.0679 85.7602 83.6868 84.3527 82.9722 83.1578C86.3423 81.8296 88.1162 77.6828 86.9342 73.8958C86.7538 73.3174 86.5089 72.7672 86.2055 72.2578C86.586 72.1032 86.9526 71.9079 87.3 71.6747V87.1999ZM87.3 58.1332H80.8333C79.9405 58.1332 79.2167 58.9466 79.2167 59.9499C79.2167 60.9532 79.9405 61.7666 80.8333 61.7666H84.0667C85.8525 61.7666 87.3 63.3932 87.3 65.3999C87.3 67.4066 85.8525 69.0332 84.0667 69.0332H77.6C76.7072 69.0332 75.9833 69.8466 75.9833 70.8499C75.9833 71.8531 76.7072 72.6666 77.6 72.6666H80.8333C82.6191 72.6666 84.0667 74.2932 84.0667 76.2999C84.0667 78.3066 82.6191 79.9332 80.8333 79.9332H74.3667C73.4739 79.9332 72.75 80.7466 72.75 81.7499C72.75 82.7532 73.4739 83.5666 74.3667 83.5666H77.6C79.3858 83.5666 80.8333 85.1932 80.8333 87.1999C80.8333 89.2066 79.3858 90.8332 77.6 90.8332H53.4842L35.5667 87.4778V50.8666H45.2667C45.5175 50.8668 45.7648 50.8016 45.9893 50.6758L56.5833 44.7226V49.0499C56.5833 50.0532 57.3072 50.8666 58.2 50.8666H87.3C89.0858 50.8666 90.5333 52.4932 90.5333 54.4999C90.5333 56.5066 89.0858 58.1332 87.3 58.1332ZM90.5333 79.9332V60.7747C92.5457 59.4819 93.6994 57.1513 93.7667 54.7254V79.9332H90.5333Z" fill="#232243"/>
<path d="M22.6333 76.3C19.0619 76.3 16.1667 79.5535 16.1667 83.5667C16.1667 87.58 19.0619 90.8334 22.6333 90.8334C26.2047 90.8334 29.1 87.58 29.1 83.5667C29.1 79.5535 26.2047 76.3 22.6333 76.3ZM22.6333 87.2C20.8475 87.2 19.4 85.5734 19.4 83.5667C19.4 81.56 20.8475 79.9334 22.6333 79.9334C24.4191 79.9334 25.8667 81.56 25.8667 83.5667C25.8667 85.5734 24.4191 87.2 22.6333 87.2Z" fill="#FEBE12"/>
</svg>
