<svg width="55" height="103" viewBox="0 0 55 103" fill="none" xmlns="http://www.w3.org/2000/svg">
<path d="M55 24.4766H54.3939V8.97306C54.3939 6.59326 53.3815 4.31092 51.5795 2.62815C49.7774 0.945374 47.3332 1.51227e-06 44.7847 0H9.60929C8.34738 -2.74553e-06 7.09783 0.232089 5.93198 0.683025C4.76613 1.13396 3.70681 1.79491 2.8145 2.62813C1.9222 3.46136 1.21438 4.45054 0.731469 5.5392C0.248556 6.62786 2.13834e-06 7.79467 0 8.97303V94.0269C-2.15929e-06 96.4067 1.0124 98.6891 2.81449 100.372C4.61657 102.055 7.06072 103 9.60926 103H44.7846C47.3332 103 49.7773 102.055 51.5794 100.372C53.3815 98.6891 54.3939 96.4068 54.3939 94.027V35.5124H55V24.4766Z" fill="#3F3D56"/>
<path d="M44.9437 2.6753H40.4116C40.62 3.16193 40.6996 3.6899 40.6433 4.21271C40.5869 4.73552 40.3965 5.23712 40.0887 5.67332C39.7809 6.10952 39.3651 6.46693 38.8781 6.71408C38.3911 6.96122 37.8477 7.0905 37.2958 7.09054H17.405C16.8532 7.0905 16.3098 6.96122 15.8228 6.71408C15.3357 6.46693 14.92 6.10952 14.6122 5.67332C14.3044 5.23712 14.1139 4.73552 14.0576 4.21271C14.0013 3.6899 14.0808 3.16192 14.2893 2.67529H10.0562C9.12604 2.67529 8.20497 2.84977 7.34559 3.18877C6.4862 3.52777 5.70535 4.02465 5.04761 4.65105C4.38986 5.27744 3.86811 6.02108 3.51214 6.8395C3.15618 7.65793 2.97296 8.53511 2.97296 9.42096V94.9166C2.97296 95.8025 3.15617 96.6797 3.51214 97.4981C3.8681 98.3165 4.38985 99.0601 5.04759 99.6865C5.70534 100.313 6.48619 100.81 7.34557 101.149C8.20495 101.488 9.12603 101.662 10.0562 101.662H44.9437C46.8223 101.662 48.624 100.952 49.9524 99.6866C51.2807 98.4215 52.027 96.7057 52.027 94.9166V9.42098C52.027 8.53512 51.8438 7.65794 51.4878 6.83952C51.1319 6.02109 50.6101 5.27745 49.9524 4.65106C49.2946 4.02467 48.5138 3.52778 47.6544 3.18878C46.795 2.84978 45.8739 2.6753 44.9437 2.6753Z" fill="white"/>
<path d="M27.5 65.5458C36.9411 65.5458 44.5946 58.3591 44.5946 49.4938C44.5946 40.6286 36.9411 33.4419 27.5 33.4419C18.0589 33.4419 10.4054 40.6286 10.4054 49.4938C10.4054 58.3591 18.0589 65.5458 27.5 65.5458Z" fill="#FEBE12"/>
<path d="M21.7931 50.5339C21.5718 50.7552 21.3118 50.8659 21.0131 50.8659C20.5838 50.8659 20.2638 50.7059 20.0531 50.3859C19.9011 50.1565 19.8251 49.8872 19.8251 49.5779C19.8251 49.1752 19.9291 48.8512 20.1371 48.6059C20.3425 48.3605 20.6278 48.2379 20.9931 48.2379C21.2491 48.2379 21.5051 48.3459 21.7611 48.5619L21.5571 48.8939C21.3651 48.7552 21.1905 48.6859 21.0331 48.6859C20.8145 48.6859 20.6451 48.7779 20.5251 48.9619C20.4211 49.1192 20.3691 49.3245 20.3691 49.5779C20.3691 49.8019 20.4305 49.9939 20.5531 50.1539C20.6838 50.3219 20.8585 50.4059 21.0771 50.4059C21.2211 50.4059 21.3918 50.3432 21.5891 50.2179L21.7931 50.5339ZM23.8111 50.8179H23.4071L23.3671 50.6459C23.1911 50.7925 23.0125 50.8659 22.8311 50.8659C22.4285 50.8659 22.2271 50.6699 22.2271 50.2779C22.2271 50.0832 22.3111 49.9312 22.4791 49.8219C22.6498 49.7099 22.9018 49.6539 23.2351 49.6539H23.3191V49.6459C23.3191 49.5312 23.2951 49.4525 23.2471 49.4099C23.1991 49.3672 23.1125 49.3459 22.9871 49.3459C22.8111 49.3459 22.6498 49.4019 22.5031 49.5139C22.4551 49.4259 22.4098 49.3392 22.3671 49.2539C22.5191 49.1365 22.6511 49.0579 22.7631 49.0179C22.8778 48.9752 23.0138 48.9539 23.1711 48.9539C23.5978 48.9539 23.8111 49.2205 23.8111 49.7539V50.8179ZM23.3031 49.9619H23.2431C23.0911 49.9619 22.9685 49.9885 22.8751 50.0419C22.7818 50.0952 22.7351 50.1659 22.7351 50.2539C22.7351 50.4192 22.8071 50.5019 22.9511 50.5019C23.0391 50.5019 23.1165 50.4765 23.1831 50.4259C23.2498 50.3752 23.2898 50.3112 23.3031 50.2339V49.9619ZM25.0189 48.2379V50.8179H24.5149V48.5019L25.0189 48.2379ZM27.1858 50.8179H26.7818L26.7418 50.6459C26.5658 50.7925 26.3872 50.8659 26.2058 50.8659C25.8032 50.8659 25.6018 50.6699 25.6018 50.2779C25.6018 50.0832 25.6858 49.9312 25.8538 49.8219C26.0245 49.7099 26.2765 49.6539 26.6098 49.6539H26.6938V49.6459C26.6938 49.5312 26.6698 49.4525 26.6218 49.4099C26.5738 49.3672 26.4872 49.3459 26.3618 49.3459C26.1858 49.3459 26.0245 49.4019 25.8778 49.5139C25.8298 49.4259 25.7845 49.3392 25.7418 49.2539C25.8938 49.1365 26.0258 49.0579 26.1378 49.0179C26.2525 48.9752 26.3885 48.9539 26.5458 48.9539C26.9725 48.9539 27.1858 49.2205 27.1858 49.7539V50.8179ZM26.6778 49.9619H26.6178C26.4658 49.9619 26.3432 49.9885 26.2498 50.0419C26.1565 50.0952 26.1098 50.1659 26.1098 50.2539C26.1098 50.4192 26.1818 50.5019 26.3258 50.5019C26.4138 50.5019 26.4912 50.4765 26.5578 50.4259C26.6245 50.3752 26.6645 50.3112 26.6778 50.2339V49.9619ZM28.2896 50.8179H27.8816V48.5219L28.3856 48.2379V49.2059C28.4416 49.1205 28.5203 49.0539 28.6216 49.0059C28.7016 48.9685 28.7896 48.9499 28.8856 48.9499C29.155 48.9499 29.3656 49.0419 29.5176 49.2259C29.651 49.3885 29.7176 49.6045 29.7176 49.8739C29.7176 50.2205 29.619 50.4832 29.4216 50.6619C29.267 50.7979 29.0763 50.8659 28.8496 50.8659C28.6256 50.8659 28.4523 50.7899 28.3296 50.6379L28.2896 50.8179ZM28.3856 49.7299V50.1659C28.3936 50.2645 28.4336 50.3472 28.5056 50.4139C28.5803 50.4805 28.667 50.5139 28.7656 50.5139C28.8936 50.5139 28.995 50.4605 29.0696 50.3539C29.1443 50.2472 29.1816 50.1005 29.1816 49.9139C29.1816 49.7299 29.147 49.5845 29.0776 49.4779C29.0083 49.3712 28.9123 49.3179 28.7896 49.3179C28.6776 49.3179 28.5816 49.3579 28.5016 49.4379C28.4243 49.5179 28.3856 49.6152 28.3856 49.7299ZM31.7558 50.8179H31.3518L31.3118 50.6459C31.1358 50.7925 30.9572 50.8659 30.7758 50.8659C30.3732 50.8659 30.1718 50.6699 30.1718 50.2779C30.1718 50.0832 30.2558 49.9312 30.4238 49.8219C30.5945 49.7099 30.8465 49.6539 31.1798 49.6539H31.2638V49.6459C31.2638 49.5312 31.2398 49.4525 31.1918 49.4099C31.1438 49.3672 31.0572 49.3459 30.9318 49.3459C30.7558 49.3459 30.5945 49.4019 30.4478 49.5139C30.3998 49.4259 30.3545 49.3392 30.3118 49.2539C30.4638 49.1365 30.5958 49.0579 30.7078 49.0179C30.8225 48.9752 30.9585 48.9539 31.1158 48.9539C31.5425 48.9539 31.7558 49.2205 31.7558 49.7539V50.8179ZM31.2478 49.9619H31.1878C31.0358 49.9619 30.9132 49.9885 30.8198 50.0419C30.7265 50.0952 30.6798 50.1659 30.6798 50.2539C30.6798 50.4192 30.7518 50.5019 30.8958 50.5019C30.9838 50.5019 31.0612 50.4765 31.1278 50.4259C31.1945 50.3752 31.2345 50.3112 31.2478 50.2339V49.9619ZM32.8876 49.0019L32.9356 49.1619C32.9623 49.1059 33.013 49.0579 33.0876 49.0179C33.165 48.9752 33.2436 48.9539 33.3236 48.9539C33.5636 48.9539 33.7423 49.0672 33.8596 49.2939L33.4356 49.5259C33.3476 49.4245 33.2543 49.3739 33.1556 49.3739C33.065 49.3739 32.9983 49.4205 32.9556 49.5139V50.8179H32.4596V49.0019H32.8876ZM36.0102 49.0019C35.9035 49.3005 35.7569 49.7019 35.5702 50.2059C35.4342 50.5819 35.3275 50.8739 35.2502 51.0819C35.1249 51.4152 34.9489 51.5819 34.7222 51.5819C34.5462 51.5819 34.3649 51.5059 34.1782 51.3539C34.2315 51.2632 34.2769 51.1832 34.3142 51.1139C34.4129 51.1779 34.4995 51.2099 34.5742 51.2099C34.6835 51.2099 34.7809 51.0792 34.8662 50.8179H34.7702L34.1342 49.0019H34.6342C34.6635 49.0899 34.7089 49.2272 34.7702 49.4139L34.7942 49.4779C34.9089 49.8245 34.9915 50.0792 35.0422 50.2419L35.5062 49.0019H36.0102Z" fill="white"/>
</svg>
