<svg width="100" height="90" viewBox="0 0 100 90" fill="none" xmlns="http://www.w3.org/2000/svg">
<g id="shopping-bag 1">
<g id="Shopping Bag-Hands-Bag-Purchase-Buy">
<path id="Vector" d="M67.1875 16.875H60.9375V12.6562C60.9375 10.0455 59.7852 7.54173 57.734 5.69567C55.6828 3.84961 52.9008 2.8125 50 2.8125C47.0992 2.8125 44.3172 3.84961 42.266 5.69567C40.2148 7.54173 39.0625 10.0455 39.0625 12.6562V16.875H32.8125C32.3981 16.875 32.0007 17.0232 31.7076 17.2869C31.4146 17.5506 31.25 17.9083 31.25 18.2812V49.2188C31.2537 50.3366 31.7488 51.4077 32.627 52.1982C33.5053 52.9886 34.6954 53.4342 35.9375 53.4375H56.25V50.625H35.9375C35.5231 50.625 35.1257 50.4768 34.8326 50.2131C34.5396 49.9494 34.375 49.5917 34.375 49.2188V47.8125H56.25V45H34.375V19.6875H39.0625V23.9062H42.1875V19.6875H57.8125V23.9062H60.9375V19.6875H65.625V23.9062H68.75V18.2812C68.75 17.9083 68.5854 17.5506 68.2924 17.2869C67.9993 17.0232 67.6019 16.875 67.1875 16.875ZM57.8125 16.875H42.1875V12.6562C42.1875 10.7914 43.0106 9.00302 44.4757 7.68441C45.9409 6.36579 47.928 5.625 50 5.625C52.072 5.625 54.0591 6.36579 55.5243 7.68441C56.9894 9.00302 57.8125 10.7914 57.8125 12.6562V16.875Z" fill="#232243"/>
<path id="Vector_2" d="M89.0625 26.7188H60.9375C60.5231 26.7188 60.1257 26.8669 59.8326 27.1306C59.5396 27.3944 59.375 27.752 59.375 28.125V49.2188C59.3787 50.3366 59.8738 51.4077 60.752 52.1982C61.6303 52.9886 62.8204 53.4342 64.0625 53.4375H85.9375C87.1796 53.4342 88.3697 52.9886 89.248 52.1982C90.1262 51.4077 90.6213 50.3366 90.625 49.2188V28.125C90.625 27.752 90.4604 27.3944 90.1674 27.1306C89.8743 26.8669 89.4769 26.7188 89.0625 26.7188ZM87.5 49.2188C87.5 49.5917 87.3354 49.9494 87.0424 50.2131C86.7493 50.4768 86.3519 50.625 85.9375 50.625H64.0625C63.6481 50.625 63.2507 50.4768 62.9576 50.2131C62.6646 49.9494 62.5 49.5917 62.5 49.2188V47.8125H87.5V49.2188ZM87.5 45H62.5V29.5312H87.5V45Z" fill="#FEBE12"/>
<path id="Vector_3" d="M75 42.1875C77.0712 42.1853 79.0569 41.4438 80.5215 40.1256C81.9861 38.8075 82.81 37.0204 82.8125 35.1562V32.3438H79.6875V35.1562C79.6875 36.2751 79.1936 37.3482 78.3146 38.1394C77.4355 38.9305 76.2432 39.375 75 39.375C73.7568 39.375 72.5645 38.9305 71.6854 38.1394C70.8064 37.3482 70.3125 36.2751 70.3125 35.1562V32.3438H67.1875V35.1562C67.19 37.0204 68.0139 38.8075 69.4785 40.1256C70.9431 41.4438 72.9288 42.1853 75 42.1875Z" fill="#FEBE12"/>
<path id="Vector_4" d="M97.3937 62.6483C96.6969 61.3389 95.478 60.3137 93.9795 59.7764C92.4809 59.2391 90.8125 59.2292 89.3062 59.7486L75.3531 64.3189C75.0589 63.2694 74.4345 62.3186 73.5549 61.5805C72.6752 60.8424 71.5776 60.3484 70.3937 60.1578L51.5453 57.1667C47.4936 56.5251 43.3256 56.8534 39.4594 58.1187L37.0312 58.9217C34.7495 59.6733 32.5938 60.7044 30.625 61.9859L30.2797 61.1323C30.2099 60.9586 30.1027 60.799 29.9643 60.6626C29.8259 60.5262 29.659 60.4156 29.4731 60.3372C29.2873 60.2589 29.086 60.2143 28.881 60.2059C28.676 60.1976 28.4711 60.2257 28.2781 60.2886L10.6578 66.0542C10.4648 66.1171 10.2874 66.2135 10.1359 66.3381C9.98427 66.4626 9.86144 66.6128 9.77438 66.7801C9.68732 66.9474 9.63773 67.1285 9.62845 67.313C9.61918 67.4976 9.65039 67.6819 9.72031 67.8556L2.37656 70.2603L3.44531 72.9026L10.7891 70.498L17.1625 86.2592L20.0984 85.2973L13.1984 68.217L27.8859 63.4076L35.9031 83.2358L32.1531 84.4662L33.2219 87.1072L38.4375 85.3915C38.6307 85.3287 38.8082 85.2322 38.9599 85.1075C39.1116 84.9829 39.2345 84.8325 39.3216 84.6651C39.4087 84.4976 39.4582 84.3164 39.4674 84.1317C39.4765 83.947 39.4451 83.7625 39.375 83.5887L38.8406 82.2669L42.4344 81.0884C44.6937 80.3453 47.1019 80.0395 49.5016 80.1912L56.9141 80.6539C59.7498 80.8374 62.5965 80.4765 65.2656 79.595L93.8281 70.2392C94.636 69.9748 95.3746 69.5632 95.9977 69.0303C96.6209 68.4973 97.1151 67.8544 97.4496 67.1417C97.7841 66.4289 97.9517 65.6618 97.9418 64.8882C97.9319 64.1145 97.7448 63.3511 97.3922 62.6455L97.3937 62.6483ZM94.5219 66.14C94.35 66.4754 94.1059 66.7768 93.8036 67.0267C93.5013 67.2765 93.1469 67.4698 92.7609 67.5955L64.1984 76.9526C61.9395 77.6974 59.5308 78.0027 57.1312 77.8484L49.7187 77.3858C46.8837 77.2074 44.0387 77.5682 41.3687 78.4447L37.7656 79.6245L31.7422 64.7295C33.6646 63.3792 35.8105 62.3087 38.1016 61.557L40.5266 60.7625C43.8779 59.6654 47.4909 59.3807 51.0031 59.937L69.8437 62.9281C70.2521 62.988 70.6432 63.1203 70.9943 63.3173C71.3454 63.5143 71.6496 63.7721 71.8891 64.0757C72.1287 64.3794 72.2988 64.7228 72.3897 65.0861C72.4807 65.4494 72.4905 65.8253 72.4187 66.192C72.3469 66.5587 72.1949 66.909 71.9715 67.2224C71.7481 67.5359 71.4578 67.8063 71.1174 68.018C70.777 68.2296 70.3932 68.3783 69.9885 68.4555C69.5837 68.5326 69.1659 68.5367 68.7594 68.4673L51.8328 65.7814L51.2891 68.5517L68.2156 71.2376C69.7155 71.4766 71.2607 71.212 72.5584 70.4941C73.856 69.7761 74.8159 68.6547 75.2562 67.3423L90.3687 62.3909C91.1337 62.121 91.9826 62.1153 92.7519 62.375C93.5213 62.6346 94.1567 63.1412 94.5359 63.7972C94.7198 64.1659 94.8137 64.5658 94.8113 64.97C94.8089 65.3741 94.7102 65.7731 94.5219 66.14Z" fill="#232243"/>
</g>
</g>
</svg>
