<svg width="100" height="90" viewBox="0 0 100 90" fill="none" xmlns="http://www.w3.org/2000/svg">
<g clip-path="url(#clip0)">
<path d="M83.3977 0H16.6016C10.3554 0 5.27344 4.57375 5.27344 10.1953V75.2337C5.27344 78.1416 7.90176 80.5071 11.1328 80.5071H36.7836C37.8624 80.5071 38.7367 79.7202 38.7367 78.7493C38.7367 77.7784 37.8624 76.9915 36.7836 76.9915H11.1328C10.0555 76.9915 9.17969 76.2032 9.17969 75.2337V10.1953C9.17969 6.51215 12.5092 3.51562 16.6016 3.51562H74.8505C73.1209 5.3064 72.0695 7.64168 72.0695 10.1953V66.8436C72.0695 68.4654 70.6039 69.7845 68.8019 69.7845C67.3935 69.7845 66.1476 68.9763 65.7013 67.774L62.7579 59.8254C61.927 57.5814 59.6024 56.0742 56.9748 56.0742C53.6133 56.0742 50.8789 58.5352 50.8789 61.5598V62.929H40.7555C39.6767 62.929 38.8023 63.7166 38.8023 64.6868C38.8023 65.6577 39.6767 66.4446 40.7555 66.4446H50.8789V75.1897C50.8789 77.7853 51.4412 80.3162 52.5505 82.7113L55.4237 88.9178C55.7365 89.5928 56.4621 90 57.2273 90C57.4776 90 57.7324 89.9567 57.9773 89.8647C58.9737 89.4912 59.4444 88.4619 59.0294 87.5658L56.1562 81.3593C55.2467 79.3948 54.7852 77.319 54.7852 75.1904V61.5605C54.7852 60.4736 55.7671 59.5898 56.9748 59.5898C57.9185 59.5898 58.754 60.1309 59.0523 60.937L61.9957 68.8857C62.9738 71.5258 65.7089 73.3001 68.8019 73.3001C72.7577 73.3001 75.9758 70.4038 75.9758 66.8436V36.706L78.5858 39.0502C83.2428 43.2333 85.807 48.7985 85.807 54.7195V73.4052C85.807 78.2453 84.5886 83.115 82.2845 87.4883C81.8222 88.3651 82.238 89.4136 83.2123 89.8297C84.1866 90.2458 85.3516 89.8723 85.8139 88.9948C88.3644 84.1539 89.7133 78.763 89.7133 73.4052V54.7195C89.7133 47.8578 86.7416 41.4095 81.3454 36.5618L75.9758 31.7381V30.0586H88.8664C92.0975 30.0586 94.7258 27.6931 94.7258 24.7852V10.1953C94.7258 4.57375 89.6446 0 83.3977 0V0ZM90.8195 24.7852C90.8195 25.754 89.9437 26.543 88.8664 26.543H75.9758V10.1953C75.9758 6.51215 79.3053 3.51562 83.3977 3.51562C87.4901 3.51562 90.8195 6.51215 90.8195 10.1953V24.7852Z" fill="#232243"/>
<path d="M45.3125 76.9915C44.7983 76.9915 44.2947 77.1796 43.9316 77.5064C43.5684 77.834 43.3594 78.2872 43.3594 78.7493C43.3594 79.2121 43.5684 79.6653 43.9316 79.9921C44.2947 80.3189 44.7983 80.5071 45.3125 80.5071C45.826 80.5071 46.3295 80.3189 46.6934 79.9921C47.0566 79.6653 47.2656 79.2121 47.2656 78.7493C47.2656 78.2872 47.0566 77.834 46.6934 77.5064C46.3295 77.1796 45.826 76.9915 45.3125 76.9915Z" fill="#232243"/>
<path d="M32.1617 13.0078C32.1617 11.0694 30.4092 9.49219 28.2555 9.49219H19.6617C17.5072 9.49219 15.7555 11.0694 15.7555 13.0078V20.7422C15.7555 22.6806 17.5072 24.2578 19.6617 24.2578H28.2555C30.4092 24.2578 32.1617 22.6806 32.1617 20.7422V13.0078ZM28.2555 20.7422H19.6617V13.0078H28.2555L28.2577 20.7422C28.2577 20.7422 28.257 20.7422 28.2555 20.7422Z" fill="#FEBE12"/>
<path d="M32.1617 34.1016C32.1617 32.1632 30.4092 30.5859 28.2555 30.5859H19.6617C17.5072 30.5859 15.7555 32.1632 15.7555 34.1016V41.8359C15.7555 43.7743 17.5072 45.3516 19.6617 45.3516H28.2555C30.4092 45.3516 32.1617 43.7743 32.1617 41.8359V34.1016ZM28.2555 41.8359H19.6617V34.1016H28.2555L28.2577 41.8359C28.2577 41.8359 28.257 41.8359 28.2555 41.8359Z" fill="#FEBE12"/>
<path d="M28.2555 51.6797H19.6617C17.5072 51.6797 15.7555 53.2562 15.7555 55.1953V62.929C15.7555 64.8681 17.5072 66.4446 19.6617 66.4446H28.2555C30.4092 66.4446 32.1617 64.8681 32.1617 62.929V55.1953C32.1617 53.2562 30.4092 51.6797 28.2555 51.6797ZM28.2555 62.929H19.6617V55.1953H28.2555L28.2577 62.929C28.2577 62.929 28.257 62.929 28.2555 62.929Z" fill="#232243"/>
<path d="M63.1508 24.2578C64.2296 24.2578 65.1039 23.4709 65.1039 22.5C65.1039 21.5291 64.2296 20.7422 63.1508 20.7422H49.6864C48.6076 20.7422 47.7333 21.5291 47.7333 22.5C47.7333 23.4709 48.6076 24.2578 49.6864 24.2578H63.1508Z" fill="#232243"/>
<path d="M40.7555 24.2578C41.2697 24.2578 41.7732 24.0697 42.1364 23.7428C42.4995 23.416 42.7086 22.9621 42.7086 22.5C42.7086 22.0379 42.4995 21.584 42.1364 21.2572C41.7732 20.9303 41.2697 20.7422 40.7555 20.7422C40.2397 20.7422 39.7377 20.9303 39.3745 21.2572C39.0099 21.584 38.8023 22.0379 38.8023 22.5C38.8023 22.9621 39.0099 23.416 39.3745 23.7428C39.7377 24.0697 40.2397 24.2578 40.7555 24.2578Z" fill="#232243"/>
<path d="M40.7547 45.3516H63.1508C64.2296 45.3516 65.1039 44.5647 65.1039 43.5938C65.1039 42.6228 64.2296 41.8359 63.1508 41.8359H40.7547C39.6767 41.8359 38.8016 42.6228 38.8016 43.5938C38.8016 44.5647 39.6767 45.3516 40.7547 45.3516Z" fill="#232243"/>
</g>
<defs>
<clipPath id="clip0">
<rect width="100" height="90" fill="white"/>
</clipPath>
</defs>
</svg>
